<svg width="29" height="22" viewBox="0 0 29 22" fill="none" xmlns="http://www.w3.org/2000/svg">
<path d="M6.52484 13.3119C3.18775 14.1927 1.08667 16.3259 0.405327 19.3221C0.207069 20.1793 0.514293 20.4296 0.89584 20.548C3.51874 21.3622 8.37335 21.6514 10.2785 21.6514C12.1837 21.6514 17.0383 21.3622 19.6612 20.548C20.0428 20.4296 20.35 20.1793 20.1517 19.3221C19.4704 16.3261 17.369 14.1928 14.0322 13.3119L10.5827 16.2243C10.4071 16.3726 10.1512 16.3726 9.97553 16.2243L6.52484 13.3119Z" fill="#FFC107"/>
<path fill-rule="evenodd" clip-rule="evenodd" d="M10.2782 0.651367C7.37599 0.651367 5.03955 3.03153 5.03955 5.988V6.3488C5.03955 9.30524 7.37599 11.6854 10.2782 11.6854C13.1804 11.6854 15.5169 9.30524 15.5169 6.3488V5.988C15.5169 3.03153 13.1804 0.651367 10.2782 0.651367Z" fill="#FFC107"/>
<path fill-rule="evenodd" clip-rule="evenodd" d="M23.3955 4.46069C22.7337 4.46063 22.0784 4.59196 21.467 4.84717C20.8557 5.10238 20.3001 5.47649 19.8322 5.94812C19.3642 6.41975 18.993 6.97968 18.7397 7.59592C18.4865 8.21217 18.3561 8.87267 18.3561 9.5397C18.3564 9.66382 18.3613 9.78789 18.3707 9.91164L16.8843 11.1754V11.9545H18.9675C19.3991 12.7594 20.0384 13.4319 20.8178 13.9008C21.5972 14.3698 22.4878 14.6178 23.3955 14.6187C24.7318 14.6186 26.0134 14.0835 26.9583 13.131C27.9032 12.1785 28.4341 10.8867 28.4341 9.5397C28.4341 8.19268 27.9032 6.90085 26.9583 5.94837C26.0134 4.99588 24.7318 4.46076 23.3955 4.46069ZM23.3955 6.59303C23.8648 6.59303 24.2453 6.9765 24.2453 7.44963C24.2453 7.92276 23.8648 8.30623 23.3955 8.30623C22.9261 8.30623 22.5457 7.92276 22.5457 7.44963C22.5457 6.9765 22.9261 6.59303 23.3955 6.59303ZM22.1662 8.86555H23.6282C23.8879 8.86555 24.0971 9.07639 24.0971 9.33823V11.317H24.624V12.4864H22.1662V11.317H22.6931V9.76442L22.1662 9.52773V8.86555Z" fill="#FFC107"/>
</svg>
