<svg width="23" height="22" viewBox="0 0 23 22" fill="none" xmlns="http://www.w3.org/2000/svg">
<path d="M11.2292 0C8.25103 0 5.39488 1.15897 3.28902 3.2219C1.18317 5.28478 0 8.08274 0 11C0 13.9173 1.18312 16.7152 3.28902 18.7781C5.39488 20.841 8.25113 22 11.2292 22C14.2072 22 17.0635 20.841 19.1693 18.7781C21.2752 16.7152 22.4583 13.9173 22.4583 11C22.4583 8.08274 21.2752 5.28478 19.1693 3.2219C17.0635 1.15902 14.2072 0 11.2292 0V0ZM11.2292 20.8422C8.56445 20.8422 6.00885 19.8053 4.12488 17.9595C2.24066 16.1137 1.18216 13.6104 1.18216 11.0002C1.18216 8.39002 2.24066 5.88642 4.12488 4.0409C6.00911 2.19513 8.5646 1.15823 11.2292 1.15823C13.8937 1.15823 16.4495 2.19513 18.3335 4.0409C20.2177 5.88667 21.2762 8.39002 21.2762 11.0002C21.2762 13.6104 20.2177 16.114 18.3335 17.9595C16.4492 19.8053 13.8937 20.8422 11.2292 20.8422Z" fill="#FFC107"/>
<path d="M11.8201 5.21045H10.6379V10.421H5.31885V11.579H10.6379V16.7896H11.8201V11.579H17.1392V10.421H11.8201V5.21045Z" fill="#FFC107"/>
</svg>
