<svg width="20" height="20" viewBox="0 0 20 20" fill="none" xmlns="http://www.w3.org/2000/svg">
<path d="M16.607 14.5686L14.0372 12.5266C13.616 12.1897 13.1104 11.9793 12.5628 11.9371C11.7623 11.895 11.004 12.2109 10.4986 12.7791C10.3722 12.9054 10.1827 12.9266 10.0352 12.8213C8.98196 11.9793 8.03412 11.0318 7.19145 9.97922C7.0861 9.83179 7.0861 9.64236 7.23362 9.51609C7.8444 8.96878 8.18146 8.12664 8.05512 7.24251C7.99194 6.77937 7.78124 6.33736 7.48635 5.95836L5.44315 3.39005C4.95872 2.80076 4.22144 2.42175 3.44211 2.42175C3.27358 2.42175 3.10506 2.44275 2.93654 2.4639C2.19923 2.61133 1.56746 2.94805 1.08288 3.43235C0.366743 4.14807 -0.644439 5.81123 0.556281 9.05314C1.31458 11.0952 2.8102 13.2845 4.748 15.2213C7.69688 18.1896 11.1093 20 13.7002 20C14.8587 20 15.8487 19.6212 16.5649 18.9264C17.0283 18.4633 17.3653 17.8738 17.5127 17.1581C17.7444 16.1897 17.3863 15.1792 16.607 14.5686L16.607 14.5686ZM16.1856 16.8422C16.0803 17.2843 15.8908 17.6422 15.5959 17.9369C15.1324 18.4 14.4795 18.6106 13.7002 18.6106C11.5728 18.6106 8.47632 16.9896 5.73801 14.274C1.98862 10.5477 0.345638 6.12699 2.05182 4.42181C2.36772 4.10609 2.74693 3.91653 3.23136 3.81138C3.31555 3.79039 3.37888 3.79039 3.46307 3.79039C3.82114 3.79039 4.15818 3.95882 4.38992 4.25352L6.43312 6.8637C6.87554 7.43214 6.72801 8.25315 6.11722 8.61099L5.61165 8.90571C5.27459 9.11628 5.16923 9.55827 5.40095 9.89513C6.68585 11.7056 8.26565 13.2845 10.0771 14.5686C10.393 14.8002 10.8565 14.6949 11.0672 14.358L11.362 13.8527C11.5937 13.4739 11.9728 13.2843 12.3731 13.2843C12.6258 13.2843 12.8997 13.3685 13.1104 13.5369L15.7223 15.5999C16.1224 15.9371 16.291 16.4001 16.1856 16.8422L16.1856 16.8422Z" fill="#747474"/>
<path d="M11.2148 5.97945C10.7093 5.85316 10.2458 6.25316 10.267 6.75832C10.288 7.09518 10.5197 7.36874 10.8568 7.43205C11.257 7.53734 11.6361 7.72676 11.9521 8.04247C12.268 8.35819 12.4787 8.73718 12.5629 9.1372C12.6471 9.45291 12.921 9.70563 13.237 9.72664C13.7426 9.76879 14.1427 9.28448 14.0164 8.77935C13.8478 8.10563 13.5108 7.47419 13.0053 6.96891C12.4996 6.48476 11.8678 6.1479 11.2148 5.97948V5.97945Z" fill="#747474"/>
<path d="M16.2491 9.95823C16.7126 10.0004 17.0916 9.60037 17.0496 9.13721C16.9233 7.60048 16.2703 6.10573 15.0907 4.92688C13.9112 3.74802 12.4156 3.09542 10.878 2.96915C10.4145 2.927 10.0143 3.30601 10.0565 3.76915C10.0775 4.148 10.3724 4.44288 10.7516 4.48487C11.9523 4.59016 13.1107 5.09529 14.0375 6.00059C14.9432 6.90574 15.4698 8.08474 15.5541 9.28461C15.575 9.64247 15.8909 9.93717 16.2491 9.95819L16.2491 9.95823Z" fill="#747474"/>
<path d="M17.1758 2.84288C15.3643 1.03244 13.0051 0.0850023 10.6249 0.000833262C10.1825 -0.0201654 9.82442 0.358693 9.84556 0.800834C9.86657 1.17969 10.1826 1.49554 10.5829 1.49554C12.5839 1.55868 14.585 2.35869 16.1016 3.89543C17.6392 5.43216 18.4397 7.41106 18.5029 9.41096C18.5239 9.78982 18.8188 10.1057 19.198 10.1478C19.6404 10.1688 20.0195 9.83213 19.9985 9.36897C19.9353 7.01108 18.9873 4.6534 17.1758 2.84296L17.1758 2.84288Z" fill="#747474"/>
</svg>
