<svg width="22" height="22" viewBox="0 0 22 22" fill="none" xmlns="http://www.w3.org/2000/svg">
<path d="M21.3433 17.2365C21.3433 17.505 21.2936 17.8554 21.1941 18.288C21.0947 18.7205 20.9902 19.0611 20.881 19.3097C20.6722 19.8069 20.0656 20.3339 19.0613 20.8907C18.1268 21.3978 17.202 21.6514 16.2872 21.6514C16.0187 21.6514 15.7577 21.6339 15.5043 21.5992C15.2507 21.5644 14.9649 21.5022 14.6466 21.4127C14.3284 21.3232 14.0923 21.2512 13.9382 21.1965C13.7841 21.1419 13.5081 21.0399 13.1104 20.8908C12.7127 20.7417 12.4691 20.6522 12.3796 20.6223C11.4052 20.2743 10.5351 19.8616 9.76955 19.3844C8.49688 18.5989 7.18191 17.5275 5.82456 16.1702C4.46725 14.8128 3.39584 13.4977 2.61026 12.2252C2.133 11.4596 1.72039 10.5896 1.37231 9.61516C1.34243 9.52566 1.25293 9.28206 1.1038 8.88436C0.954683 8.48667 0.852731 8.21068 0.798094 8.05659C0.743457 7.90249 0.671386 7.66637 0.581885 7.34818C0.492384 7.02999 0.430273 6.74409 0.395409 6.49052C0.360692 6.23696 0.343262 5.97591 0.343262 5.70741C0.343262 4.7926 0.596825 3.86785 1.10395 2.93328C1.66075 1.929 2.18777 1.32255 2.68494 1.11367C2.93338 1.00439 3.27395 0.899954 3.70651 0.800489C4.13908 0.701028 4.48947 0.651367 4.75797 0.651367C4.89713 0.651367 5.00158 0.666309 5.07116 0.696045C5.25016 0.755662 5.51369 1.13359 5.86158 1.82955C5.97101 2.01852 6.12012 2.28686 6.3091 2.63494C6.49807 2.98298 6.67209 3.29865 6.83118 3.58196C6.99026 3.86541 7.14436 4.13126 7.29348 4.37985C7.32336 4.41954 7.41037 4.54391 7.55451 4.75265C7.69865 4.96139 7.80558 5.13788 7.87516 5.28218C7.94475 5.42633 7.97961 5.56812 7.97961 5.70728C7.97961 5.90621 7.83796 6.15481 7.55451 6.45304C7.27106 6.75128 6.96287 7.02477 6.62976 7.27335C6.29666 7.52194 5.98844 7.78545 5.70502 8.06378C5.42157 8.3421 5.27992 8.57089 5.27992 8.74991C5.27992 8.83941 5.30482 8.95133 5.35448 9.08551C5.40413 9.21968 5.44647 9.32164 5.48119 9.39122C5.51605 9.4608 5.58563 9.58018 5.68993 9.74922C5.79437 9.91827 5.8515 10.0127 5.86146 10.0327C6.61716 11.3948 7.48217 12.5632 8.45656 13.5376C9.43096 14.512 10.5993 15.3772 11.9615 16.1327C11.9814 16.1427 12.0757 16.1998 12.2449 16.3042C12.414 16.4087 12.5332 16.4783 12.6029 16.513C12.6725 16.5478 12.7745 16.59 12.9087 16.6397C13.0428 16.6895 13.1547 16.7142 13.2442 16.7142C13.4233 16.7142 13.6519 16.5726 13.9304 16.2891C14.2088 16.0057 14.4724 15.6975 14.7208 15.3644C14.9694 15.0313 15.2429 14.7231 15.5411 14.4397C15.8394 14.1562 16.0879 14.0146 16.2869 14.0146C16.426 14.0146 16.5678 14.0494 16.712 14.119C16.8561 14.1886 17.0326 14.2955 17.2415 14.4397C17.4503 14.5838 17.5746 14.6708 17.6143 14.7007C17.8629 14.8498 18.1289 15.0039 18.4122 15.163C18.6956 15.3221 19.0113 15.4961 19.3592 15.6851C19.7073 15.874 19.9756 16.0231 20.1646 16.1326C20.8607 16.4806 21.2385 16.7442 21.2981 16.923C21.328 16.9926 21.3428 17.097 21.3428 17.2362L21.3433 17.2365Z" fill="#FFC107"/>
</svg>
