<svg width="16" height="20" viewBox="0 0 16 20" fill="none" xmlns="http://www.w3.org/2000/svg">
<path d="M7.99358 0C3.59711 0 0 3.39319 0 7.56943C0 9.22248 0.577365 10.7886 1.59872 12.0936L7.63844 19.8371C7.77166 20.0112 8.08258 20.0546 8.26011 19.9241L8.34888 19.8371L14.3886 12.0936C15.4099 10.7885 15.9873 9.2224 15.9873 7.56943C15.9873 3.39319 12.3902 0 7.99373 0H7.99358ZM7.37191 10.5275C5.68443 10.1795 4.57416 8.61342 4.92937 6.96022C5.28459 5.30718 6.88331 4.21957 8.57095 4.56754C9.81444 4.82855 10.7913 5.7421 11.0135 6.96022C11.3244 8.61327 10.2141 10.2229 8.57095 10.5275C8.17127 10.6144 7.77159 10.6144 7.37191 10.5275Z" fill="#FFC107"/>
</svg>
