<svg width="23" height="21" viewBox="0 0 23 21" fill="none" xmlns="http://www.w3.org/2000/svg">
<path d="M22.116 10.3279L12.1202 0.229981C12.0482 0.157078 11.9627 0.099239 11.8686 0.059776C11.7745 0.0203129 11.6736 0 11.5717 0C11.4699 0 11.369 0.0203129 11.2749 0.059776C11.1808 0.099239 11.0953 0.157078 11.0233 0.229981L1.02752 10.3279C0.736308 10.6224 0.571289 11.0222 0.571289 11.4393C0.571289 12.3053 1.26777 13.0095 2.12441 13.0095H3.17762V20.2149C3.17762 20.6492 3.52464 21 3.95418 21H10.0186V15.5045H12.7366V21H19.1893C19.6188 21 19.9659 20.6492 19.9659 20.2149V13.0095H21.0191C21.4316 13.0095 21.8272 12.8451 22.1184 12.5482C22.7227 11.9349 22.7227 10.9413 22.116 10.3279Z" fill="#FFC107"/>
</svg>
