<svg width="18" height="22" viewBox="0 0 18 22" fill="none" xmlns="http://www.w3.org/2000/svg">
<path d="M12.8896 0.927482C12.8896 1.23949 12.5725 1.49459 12.1811 1.49459L5.64849 1.49438C5.26068 1.49438 4.94362 1.23929 4.94362 0.927272V0.22522L0.271484 0.225429V21.0427L11.9385 13.2577C12.0204 13.2008 12.1398 13.1887 12.2444 13.2278C12.345 13.2638 12.4085 13.3448 12.4085 13.4318C12.4085 14.5748 13.5608 15.5048 14.9814 15.5048C16.4021 15.5048 17.5543 14.5748 17.5543 13.4318V5.91953H17.558V0.228644H12.8895L12.8896 0.927482ZM5.54794 10.5151L3.72078 11.9852C3.66486 12.0273 3.59022 12.0511 3.51947 12.0511H3.51583C3.44508 12.0511 3.36679 12.0271 3.31452 11.9821L2.30043 11.163C2.18859 11.0701 2.18859 10.9259 2.30043 10.8359C2.41591 10.7459 2.59512 10.7459 2.70306 10.8389L3.51979 11.496L5.1454 10.191C5.25724 10.0981 5.43619 10.0981 5.54803 10.191C5.65597 10.2783 5.65597 10.4223 5.54803 10.5152L5.54794 10.5151ZM5.54794 6.86726L3.72078 8.33731C3.66486 8.37937 3.59022 8.40323 3.51947 8.40323H3.51583C3.44508 8.40323 3.36679 8.37916 3.31452 8.33731L2.30043 7.51531C2.18859 7.4224 2.18859 7.27821 2.30043 7.19137C2.41591 7.09846 2.59512 7.09846 2.70306 7.19137L3.51979 7.84848L5.1454 6.54353C5.25724 6.45062 5.43619 6.45062 5.54803 6.54353C5.65597 6.63331 5.65597 6.77728 5.54803 6.86726L5.54794 6.86726ZM5.54794 3.22232L3.72078 4.69237C3.66486 4.73443 3.59022 4.75829 3.51947 4.75829H3.51583C3.44508 4.75829 3.36679 4.73422 3.31452 4.69237L2.30043 3.87037C2.18859 3.77746 2.18859 3.63327 2.30043 3.54329C2.41591 3.45331 2.59512 3.45331 2.70306 3.54622L3.51979 4.20333L5.1454 2.89838C5.25724 2.80547 5.43619 2.80547 5.54803 2.89838C5.65597 2.98816 5.65597 3.13234 5.54803 3.22232L5.54794 3.22232ZM13.08 12.0509H6.95761C6.80103 12.0509 6.67046 11.9458 6.67046 11.8198C6.67046 11.6909 6.80103 11.5888 6.95761 11.5888H13.0803C13.2405 11.5888 13.3674 11.6907 13.3674 11.8198C13.3635 11.946 13.2405 12.0509 13.08 12.0509H13.08ZM15.3322 10.581H6.95781C6.80123 10.581 6.67067 10.4759 6.67067 10.35C6.67067 10.2211 6.80123 10.1189 6.95781 10.1189H15.3329C15.4931 10.1189 15.62 10.2208 15.62 10.35C15.6161 10.4759 15.4931 10.581 15.3326 10.581H15.3322ZM6.67416 8.17488C6.67416 8.04598 6.80473 7.94385 6.96131 7.94385H13.084C13.2442 7.94385 13.3711 8.04576 13.3711 8.17488C13.3711 8.30086 13.2445 8.40591 13.084 8.40591H6.95765C6.80081 8.40591 6.67414 8.30086 6.67414 8.17488H6.67416ZM15.3322 6.93604H6.95781C6.80123 6.93604 6.67067 6.831 6.67067 6.70502C6.67067 6.57611 6.80123 6.47399 6.95781 6.47399H15.3329C15.4931 6.47399 15.62 6.5759 15.62 6.70502C15.6161 6.831 15.4931 6.93604 15.3326 6.93604H15.3322ZM6.67416 4.52994C6.67416 4.40104 6.80473 4.29891 6.96131 4.29891H13.084C13.2442 4.29891 13.3711 4.40082 13.3711 4.52994C13.3711 4.65592 13.2445 4.76097 13.084 4.76097H6.95765C6.80081 4.76097 6.67414 4.65592 6.67414 4.52994H6.67416ZM15.6159 3.05989C15.6159 3.18587 15.4892 3.29092 15.3287 3.29092H6.95765C6.80107 3.29092 6.6705 3.18587 6.6705 3.05989C6.6705 2.93099 6.80107 2.82886 6.95765 2.82886H15.3327C15.4929 2.832 15.6159 2.93098 15.6159 3.05989H15.6159Z" fill="#FFC107"/>
</svg>
