<svg width="13" height="17" viewBox="0 0 13 17" fill="none" xmlns="http://www.w3.org/2000/svg">
<path fill-rule="evenodd" clip-rule="evenodd" d="M3.64271 17H8.49985C8.72333 17 8.90466 16.8187 8.90466 16.5952C8.90466 16.3719 8.72333 16.1906 8.49985 16.1906H3.64271C3.41936 16.1906 3.23804 16.3719 3.23804 16.5952C3.23804 16.8187 3.41937 17 3.64271 17Z" fill="#747474"/>
<path fill-rule="evenodd" clip-rule="evenodd" d="M6.07171 0C9.42279 0 12.1431 2.72035 12.1431 6.07143C12.1431 8.05602 11.2073 9.94708 10.0699 11.4962C8.39984 13.7709 6.31116 15.3024 6.31116 15.3024C6.16873 15.4072 5.97439 15.4072 5.83197 15.3024C5.83197 15.3024 3.74343 13.7708 2.07324 11.4962C0.935798 9.94715 0 8.0562 0 6.07143C0 2.72035 2.72035 0 6.07143 0H6.07171ZM6.07171 4.04773C4.9546 4.04773 4.04794 4.95439 4.04794 6.0715C4.04794 7.18861 4.9546 8.09526 6.07171 8.09526C7.18882 8.09526 8.09547 7.18861 8.09547 6.0715C8.09547 4.95439 7.18882 4.04773 6.07171 4.04773Z" fill="#747474"/>
</svg>
