<svg width="25" height="25" viewBox="0 0 25 25" fill="none" xmlns="http://www.w3.org/2000/svg">
<path d="M24.2765 1.85481V20.4038C24.2765 20.5437 24.1997 20.6918 24.0735 20.7604C23.7746 20.9194 23.4729 21.0785 23.1739 21.2348C21.8739 21.9205 20.5711 22.609 19.271 23.2974C18.4482 23.7307 17.6281 24.1668 16.8053 24.6002C16.5338 24.7455 16.1855 24.5673 16.1855 24.2436C16.1855 24.2326 16.1855 24.2217 16.1855 24.2107C16.18 23.9611 16.1855 23.7088 16.1855 23.4565V21.2266H8.36871C7.92165 21.2266 7.5459 20.8481 7.5459 20.4038V14.4823C7.5459 14.0215 7.92439 13.6787 8.36871 13.6595C8.81303 13.6403 9.19153 14.0517 9.19153 14.4823V19.581H16.1855V4.90745C16.1855 4.76758 16.2623 4.61947 16.3884 4.5509C16.6874 4.39182 16.9891 4.23275 17.288 4.07641C18.4071 3.48398 19.5261 2.8943 20.6479 2.30187H9.19153V6.87947C9.19153 7.34024 8.81303 7.68308 8.36871 7.70228C7.92439 7.72148 7.5459 7.31007 7.5459 6.87947V1.47906C7.5459 1.032 7.92439 0.656243 8.36871 0.656243C8.37968 0.656243 8.38791 0.656243 8.39888 0.656243C9.09553 0.645272 9.79493 0.656243 10.4943 0.656243H23.8925C23.972 0.658986 24.0433 0.689156 24.1064 0.735782C24.1092 0.738525 24.1147 0.741267 24.1174 0.74401C24.1585 0.77418 24.1942 0.812578 24.2216 0.861947C24.2381 0.889374 24.2518 0.922287 24.26 0.952457C24.26 0.955199 24.2628 0.957942 24.2628 0.960685C24.2737 0.99634 24.2792 1.032 24.2792 1.06765C24.2792 1.07862 24.2792 1.08959 24.2792 1.10056C24.282 1.35015 24.2765 1.60248 24.2765 1.85481Z" fill="#FFC107"/>
<path d="M10.7855 9.73186V11.7395C10.7855 11.9617 10.5962 12.1509 10.3741 12.1509H6.12285V14.5289C6.12285 14.8114 5.76082 15.0802 5.503 14.8854C5.30004 14.7291 5.09434 14.5728 4.89137 14.4192C3.99999 13.739 3.10861 13.056 2.21722 12.3758C1.65771 11.948 1.09819 11.5201 0.53868 11.0922C0.278122 10.892 0.278122 10.5821 0.53868 10.3819C0.741642 10.2255 0.947345 10.0692 1.15031 9.91562C2.04169 9.23543 2.93307 8.55249 3.82446 7.8723C4.38397 7.44443 4.94349 7.01657 5.503 6.5887C5.76082 6.39123 6.12285 6.66002 6.12285 6.94526V9.3232H10.3741C10.5962 9.30948 10.7855 9.51519 10.7855 9.73186Z" fill="#FFC107"/>
</svg>
