<svg width="18" height="24" viewBox="0 0 18 24" fill="none" xmlns="http://www.w3.org/2000/svg">
<path d="M8.81017 12.8747C10.7035 12.8747 12.418 12.1228 13.6598 10.907C15.9757 12.4129 17.5029 14.992 17.5029 17.9207V18.8916C17.503 19.6182 17.198 20.3205 16.6118 20.7494C14.467 22.3182 11.8063 23.2472 8.92461 23.2472C6.04293 23.2472 3.38246 22.3184 1.23741 20.7494C0.651166 20.3207 0.346191 19.6183 0.346191 18.892L0.346367 17.9206L0.346719 17.8346C0.375758 14.9986 1.83649 12.4988 4.05421 10.9966C5.28758 12.1598 6.96356 12.8747 8.81016 12.8747L8.81017 12.8747Z" fill="#FFC107"/>
<path d="M3.09131 6.1467C3.09131 3.05011 5.65167 0.539673 8.81008 0.539673C11.9685 0.539673 14.5288 3.04988 14.5288 6.1467C14.5288 9.24316 11.9685 11.7533 8.81008 11.7533C5.65167 11.7533 3.09131 9.24307 3.09131 6.1467V6.1467Z" fill="#FFC107"/>
</svg>
