<svg width="18" height="19" viewBox="0 0 18 19" fill="none" xmlns="http://www.w3.org/2000/svg">
<path d="M17.5 9.30106H14.978C14.8596 7.88779 14.2445 6.56231 13.2417 5.55937C12.2388 4.55656 10.9133 3.94146 9.49997 3.82304V1.301C9.49997 1.12246 9.40467 0.957362 9.24999 0.868071C9.0953 0.778677 8.90471 0.778677 8.75001 0.868071C8.59533 0.95734 8.50003 1.12245 8.50003 1.301V3.82304C7.08677 3.94144 5.76128 4.55653 4.75835 5.55937C3.75554 6.56218 3.14043 7.8877 3.02202 9.30106H0.499971C0.32143 9.30106 0.156337 9.39635 0.0670457 9.55104C-0.0223486 9.70572 -0.0223486 9.89631 0.0670457 10.051C0.156315 10.2057 0.321423 10.301 0.499971 10.301H3.02202C3.14042 11.7143 3.75551 13.0397 4.75835 14.0427C5.76115 15.0455 7.08667 15.6606 8.50003 15.779V18.3011C8.50003 18.4796 8.59533 18.6447 8.75001 18.734C8.9047 18.8234 9.09529 18.8234 9.24999 18.734C9.40467 18.6447 9.49997 18.4796 9.49997 18.3011V15.779C10.9132 15.6606 12.2387 15.0455 13.2417 14.0427C14.2445 13.0399 14.8596 11.7144 14.978 10.301H17.5C17.6786 10.301 17.8437 10.2057 17.933 10.051C18.0223 9.89633 18.0223 9.70574 17.933 9.55104C17.8437 9.39635 17.6786 9.30106 17.5 9.30106ZM9.50013 14.7749V14.001C9.50013 13.8223 9.40483 13.6572 9.25015 13.5679C9.09546 13.4787 8.90488 13.4787 8.75017 13.5679C8.59549 13.6572 8.50019 13.8223 8.50019 14.001V14.7749C7.35287 14.6594 6.28086 14.1509 5.46551 13.3357C4.65028 12.5203 4.14176 11.4483 4.02627 10.301H4.8002C4.97886 10.301 5.14396 10.2057 5.23325 10.051C5.32252 9.89631 5.32252 9.70572 5.23325 9.55102C5.14398 9.39634 4.97887 9.30104 4.8002 9.30104H4.02627C4.14179 8.15372 4.65028 7.08171 5.46551 6.26635C6.28086 5.45113 7.35287 4.9426 8.50019 4.82712V5.60104C8.50019 5.77971 8.59549 5.9448 8.75017 6.03409C8.90486 6.12336 9.09545 6.12336 9.25015 6.03409C9.40483 5.94482 9.50013 5.77972 9.50013 5.60104V4.82712C10.6474 4.94263 11.7195 5.45113 12.5348 6.26635C13.35 7.08171 13.8586 8.15372 13.9741 9.30104H13.2001C13.0215 9.30104 12.8564 9.39634 12.7671 9.55102C12.6778 9.70571 12.6778 9.89629 12.7671 10.051C12.8563 10.2057 13.0215 10.301 13.2001 10.301H13.9741C13.8585 11.4483 13.35 12.5203 12.5348 13.3357C11.7195 14.1509 10.6474 14.6594 9.50013 14.7749Z" fill="#FFC107"/>
</svg>
