<svg width="18" height="22" viewBox="0 0 18 22" fill="none" xmlns="http://www.w3.org/2000/svg">
<path d="M8.98333 22C8.38756 21.9971 7.81686 21.7648 7.39453 21.3531C6.9722 20.9415 6.73216 20.3836 6.72627 19.8H11.2179C11.2203 20.0941 11.1631 20.3857 11.0495 20.658C10.9043 20.9844 10.6819 21.2723 10.4008 21.498C10.1196 21.7237 9.78776 21.8807 9.4325 21.956H9.37972C9.24926 21.9826 9.11657 21.9974 8.98333 22ZM17.9667 18.7H0V16.5L2.24583 15.4V9.35C2.18667 7.79803 2.54446 6.25804 3.28341 4.884C3.64705 4.254 4.14292 3.70668 4.73832 3.27816C5.33371 2.84964 6.01509 2.54966 6.7375 2.398V0H11.2292V2.398C14.1252 3.0734 15.7208 5.5418 15.7208 9.35V15.4L17.9667 16.5V18.7Z" fill="#FFC107"/>
</svg>
