<svg width="19" height="24" viewBox="0 0 19 24" fill="none" xmlns="http://www.w3.org/2000/svg">
<path d="M18.4778 0.651475H0.601562V21.014H13.45C13.5888 21.014 13.7017 21.1267 13.7017 21.2657C13.7017 21.9058 13.9488 22.5058 14.3982 22.9546C14.8516 23.4031 15.452 23.6506 16.0871 23.6506C17.4052 23.6506 18.4776 22.5806 18.4776 21.2655L18.4778 0.651475ZM2.98898 3.30478H16.3478C16.4867 3.30478 16.5996 3.41747 16.5996 3.55649C16.5996 3.69533 16.4869 3.8082 16.3478 3.8082H2.98898C2.85014 3.8082 2.73727 3.69551 2.73727 3.55649C2.73727 3.41765 2.84961 3.30478 2.98898 3.30478ZM2.98898 5.79011H13.3444C13.4832 5.79011 13.5961 5.9028 13.5961 6.04182C13.5961 6.18067 13.4834 6.29353 13.3444 6.29353L2.98898 6.29336C2.85014 6.29336 2.73727 6.18067 2.73727 6.04165C2.73727 5.90281 2.84961 5.79011 2.98898 5.79011ZM2.98898 8.27527H16.0886C16.2274 8.27527 16.3403 8.38796 16.3403 8.52698C16.3403 8.66582 16.2276 8.77869 16.0886 8.77869L2.98898 8.77851C2.85014 8.77851 2.73727 8.66582 2.73727 8.5268C2.73727 8.38796 2.84961 8.27527 2.98898 8.27527ZM2.98898 10.7609H11.2221C11.3609 10.7609 11.4738 10.8736 11.4738 11.0126C11.4738 11.1515 11.3611 11.2643 11.2221 11.2643L2.98898 11.2642C2.85014 11.2642 2.73727 11.1515 2.73727 11.0125C2.73727 10.8736 2.84961 10.7609 2.98898 10.7609ZM8.32192 13.7498H2.98898C2.85014 13.7498 2.73727 13.6372 2.73727 13.4981C2.73727 13.3593 2.84996 13.2464 2.98898 13.2464H8.32237C8.46121 13.2464 8.57408 13.3591 8.57408 13.4981C8.57391 13.6372 8.46094 13.7498 8.32192 13.7498ZM17.349 18.9242C17.349 19.3037 17.0401 19.6121 16.6601 19.6121H11.1662C10.7868 19.6121 10.4783 19.3035 10.4783 18.9242V15.5396C10.4783 15.1601 10.7869 14.8517 11.1662 14.8517H11.6293V13.3882C11.6293 12.1284 12.6541 11.1033 13.9136 11.1033C15.1729 11.1033 16.1969 12.1283 16.1969 13.3882V14.8517H16.66C17.04 14.8517 17.3489 15.1603 17.3489 15.5396L17.349 18.9242Z" fill="#FFC107"/>
</svg>
