<svg width="23" height="23" viewBox="0 0 23 23" fill="none" xmlns="http://www.w3.org/2000/svg">
<path d="M21.7905 11.1073L19.4828 10.1213V10.1211C19.3978 9.59152 19.2601 9.07176 19.0719 8.56932L20.5674 6.57371V6.57388C20.7112 6.38555 20.7814 6.15121 20.765 5.9149C20.7487 5.67858 20.6466 5.45622 20.4781 5.28966L17.5553 2.36916C17.3899 2.20147 17.1693 2.09945 16.9344 2.08209C16.6995 2.06489 16.4663 2.13351 16.2782 2.27533L14.2756 3.77553V3.77536C13.7734 3.58966 13.2545 3.45292 12.7262 3.36695L11.7378 1.05219C11.6439 0.836024 11.4749 0.661454 11.262 0.560433C11.0493 0.459391 10.8071 0.438924 10.5803 0.502789L6.58928 1.56871V1.56855C6.35969 1.62865 6.15957 1.76949 6.02546 1.96534C5.89134 2.16104 5.83222 2.39865 5.85925 2.63447L6.17138 5.12773C5.75411 5.46082 5.37535 5.83958 5.04223 6.25688L2.55374 5.95163V5.9518C2.31793 5.92445 2.08014 5.98258 1.88382 6.11572C1.68731 6.24886 1.54516 6.44816 1.4831 6.67728L0.419644 10.6542C0.355615 10.8835 0.376082 11.1281 0.477451 11.3436C0.578657 11.5589 0.754044 11.7309 0.971342 11.828L3.27906 12.814C3.36405 13.3436 3.50161 13.8636 3.68993 14.3658L2.19447 16.3615C2.05069 16.5496 1.98043 16.7839 1.99681 17.0203C2.01319 17.2567 2.11521 17.4789 2.28372 17.6455L5.20653 20.5637C5.37193 20.7314 5.59251 20.8334 5.82749 20.8508C6.06232 20.868 6.29551 20.7993 6.48366 20.6575L8.48631 19.1573V19.1575C8.98841 19.3432 9.50733 19.4799 10.0356 19.5659L11.0239 21.8784H11.0241C11.1176 22.0949 11.2864 22.2701 11.4992 22.3715C11.712 22.473 11.9544 22.4938 12.1815 22.4301L16.1725 21.3596C16.3966 21.2941 16.5903 21.1513 16.7192 20.9566C16.848 20.762 16.9039 20.528 16.8769 20.2961L16.5904 17.8052C17.0075 17.4719 17.3863 17.0931 17.7196 16.676L20.2058 16.9813V16.9811C20.4405 17.0066 20.6765 16.9477 20.8715 16.8147C21.0664 16.6817 21.2075 16.4834 21.2693 16.2556L22.3327 12.2787C22.3963 12.0509 22.3766 11.8079 22.2772 11.5932C22.178 11.3785 22.0054 11.2062 21.7905 11.1073L21.7905 11.1073ZM8.46959 15.4362C8.05101 15.142 7.68584 14.7784 7.38974 14.361C7.45672 14.3382 7.51781 14.3004 7.56808 14.2506L9.6809 12.1378H9.68106C9.81272 12.0062 9.85416 11.809 9.78669 11.6354C9.61981 11.1965 9.58444 10.7185 9.68499 10.26C9.78537 9.8013 10.0174 9.38191 10.3525 9.05307C10.9029 8.49269 11.6888 8.23067 12.4653 8.34872L11.0566 9.7808H11.0568C10.8762 9.96356 10.8762 10.2577 11.0568 10.4404L12.3996 11.7832C12.4877 11.8715 12.6071 11.921 12.7317 11.921C12.8563 11.921 12.9759 11.8715 13.064 11.7832L14.4327 10.4145C14.5424 11.1808 14.2869 11.9541 13.7424 12.5041C13.4136 12.8392 12.994 13.0711 12.5355 13.1716C12.0768 13.272 11.5988 13.2366 11.1599 13.0698C10.9864 13.0023 10.7893 13.0437 10.6577 13.1756L8.54489 15.2884H8.54472C8.51115 15.3328 8.4856 15.3829 8.46955 15.4363L8.46959 15.4362ZM14.8645 14.9502L14.8646 14.9504C14.1447 15.6683 13.2206 16.1461 12.2186 16.3184C11.2167 16.4907 10.186 16.349 9.26779 15.9128L11.146 14.0346L11.1458 14.0348C11.7221 14.1939 12.3305 14.1967 12.908 14.0428C13.4858 13.8889 14.0119 13.5838 14.4326 13.159C14.9218 12.6636 15.2485 12.031 15.3693 11.3453C15.4902 10.6595 15.3992 9.95337 15.1088 9.32058C15.0446 9.18106 14.9162 9.08166 14.7651 9.05464C14.6139 9.02745 14.4592 9.07592 14.3504 9.18434L12.7657 10.7785L12.085 10.0953L13.6838 8.45199C13.7858 8.34456 13.8313 8.19521 13.8064 8.04914C13.7814 7.90306 13.689 7.77746 13.5569 7.70999C12.7701 7.33875 11.8709 7.28339 11.0446 7.5554C10.2183 7.82741 9.52785 8.40614 9.11549 9.17219C8.70331 9.93824 8.60064 10.8334 8.82875 11.673L6.92014 13.5791C6.40151 12.4852 6.30358 11.2385 6.64518 10.077C6.98662 8.91558 7.74352 7.92025 8.77163 7.28093C9.79987 6.64161 11.0273 6.40286 12.2201 6.61051C13.4128 6.81799 14.4875 7.45713 15.2394 8.40614C15.9912 9.35497 16.3677 10.5475 16.2968 11.7562C16.2259 12.9647 15.7128 14.105 14.8552 14.9597L14.8645 14.9502Z" fill="#FFC107"/>
</svg>
