<svg width="25" height="25" viewBox="0 0 25 25" fill="none" xmlns="http://www.w3.org/2000/svg">
<path d="M19.5432 15.0514C17.5832 15.0514 15.8951 16.2353 15.1512 17.9233L9.45522 14.7553C9.76718 14.1153 9.94327 13.4033 9.94327 12.6514C9.94327 11.4914 9.52719 10.4194 8.83131 9.58747L13.6551 6.57138C14.3431 7.80333 15.6392 8.65138 17.1431 8.65138C19.3512 8.65138 21.1431 6.85942 21.1431 4.65137C21.1431 2.44332 19.3512 0.651367 17.1431 0.651367C14.9351 0.651367 13.1431 2.44332 13.1431 4.65137C13.1431 4.76334 13.1671 4.8753 13.1751 4.98745L7.55132 8.50745L5.94327 9.45136L7.10972 8.28491C6.50812 8.01063 5.84722 7.85134 5.14327 7.85134C2.49522 7.85134 0.343262 10.0033 0.343262 12.6513C0.343262 15.2994 2.49522 17.4514 5.14327 17.4514C6.45522 17.4514 7.64718 16.9233 8.51937 16.0594L14.7594 19.5314C14.7513 19.6353 14.7433 19.7394 14.7433 19.8514C14.7433 22.4994 16.8953 24.6514 19.5433 24.6514C22.1914 24.6514 24.3433 22.4994 24.3433 19.8514C24.3433 17.2033 22.1914 15.0514 19.5433 15.0514L19.5432 15.0514Z" fill="#FFC107"/>
</svg>
