<svg width="20" height="25" viewBox="0 0 20 25" fill="none" xmlns="http://www.w3.org/2000/svg">
<path d="M16.4529 15.0919V6.291H11.5214C11.1167 6.291 10.8132 5.96218 10.8132 5.58288V0.651367H1.05138C0.646699 0.651367 0.343262 0.980189 0.343262 1.35948V20.6303C0.343262 21.035 0.672084 21.3384 1.05138 21.3384H9.87753C10.5604 23.2604 12.4065 24.6514 14.5561 24.6514C17.2874 24.6514 19.5382 22.4258 19.5382 19.6693C19.5381 17.621 18.2482 15.8506 16.4527 15.0918L16.4529 15.0919ZM4.31376 4.84948H7.82905C8.23373 4.84948 8.53717 5.1783 8.53717 5.55759C8.53717 5.96227 8.20834 6.26571 7.82905 6.26571H4.31376C3.90909 6.26571 3.60565 5.93689 3.60565 5.55759C3.60565 5.17814 3.93447 4.84948 4.31376 4.84948ZM4.31376 8.6934H12.4571C12.8618 8.6934 13.1652 9.02222 13.1652 9.40151C13.1652 9.80619 12.8364 10.1096 12.4571 10.1096L4.31376 10.1098C3.90909 10.1098 3.60565 9.78098 3.60565 9.40169C3.60565 9.02224 3.93447 8.69339 4.31376 8.69339V8.6934ZM4.31376 12.5375H12.4571C12.8618 12.5375 13.1652 12.8663 13.1652 13.2456C13.1652 13.6249 12.8364 13.9537 12.4571 13.9537H4.31376C3.90909 13.9537 3.60565 13.6249 3.60565 13.2456C3.60565 12.8663 3.93447 12.5375 4.31376 12.5375ZM8.71424 17.7978H4.31376C3.90909 17.7978 3.60565 17.469 3.60565 17.0897C3.60565 16.7104 3.93447 16.3815 4.31376 16.3815H8.71424C9.11892 16.3815 9.42235 16.7104 9.42235 17.0897C9.42235 17.469 9.11875 17.7978 8.71424 17.7978ZM14.5562 23.2351C12.6088 23.2351 11.0157 21.6418 11.0157 19.6946C11.0157 17.7472 12.609 16.1541 14.5562 16.1541C16.5035 16.1541 18.0967 17.7474 18.0967 19.6946C18.0967 21.642 16.5035 23.2351 14.5562 23.2351Z" fill="#FFC107"/>
</svg>
