<svg width="19" height="20" viewBox="0 0 19 20" fill="none" xmlns="http://www.w3.org/2000/svg">
<path d="M3.7052 5.29355C3.7052 8.21388 6.08196 10.5906 9.00229 10.5906C11.9226 10.5906 14.2994 8.21388 14.2994 5.29355C14.2994 2.37297 11.9226 0 9.00229 0C6.08196 0 3.7052 2.37297 3.7052 5.29355ZM12.5349 5.29355C12.5349 7.24179 10.9503 8.82631 9.00209 8.82631C7.05386 8.82631 5.46933 7.24179 5.46933 5.29355C5.46933 3.34532 7.05386 1.76079 9.00209 1.76079C10.9503 1.76079 12.5349 3.34879 12.5349 5.29355Z" fill="#747474"/>
<path d="M0.882194 20C1.36825 20 1.76439 19.6038 1.76439 19.1178C1.76439 16.1612 4.16976 13.7594 7.12276 13.7594H10.8785C13.8351 13.7594 16.2369 16.1648 16.2369 19.1178C16.2369 19.6038 16.633 20 17.1191 20C17.6052 20 18.0013 19.6038 18.0013 19.1178C18.0013 15.1889 14.8072 11.9948 10.8783 11.9948H7.12301C3.19413 11.9948 0 15.1889 0 19.1178C0 19.6073 0.396128 20 0.882194 20V20Z" fill="#747474"/>
</svg>
