<svg width="24" height="21" viewBox="0 0 24 21" fill="none" xmlns="http://www.w3.org/2000/svg">
<path d="M23.3855 0.801025H0.648756C0.521151 0.801025 0.416748 0.903298 0.416748 1.0283V2.84648C0.416748 2.97148 0.521151 3.07375 0.648756 3.07375H23.3855C23.5131 3.07375 23.6175 2.97148 23.6175 2.84648V1.0283C23.6175 0.903298 23.5131 0.801025 23.3855 0.801025ZM23.3855 18.5283H0.648756C0.521151 18.5283 0.416748 18.6306 0.416748 18.7556V20.5738C0.416748 20.6988 0.521151 20.801 0.648756 20.801H23.3855C23.5131 20.801 23.6175 20.6988 23.6175 20.5738V18.7556C23.6175 18.6306 23.5131 18.5283 23.3855 18.5283ZM23.3855 9.66466H0.648756C0.521151 9.66466 0.416748 9.76693 0.416748 9.89193V11.7101C0.416748 11.8351 0.521151 11.9374 0.648756 11.9374H23.3855C23.5131 11.9374 23.6175 11.8351 23.6175 11.7101V9.89193C23.6175 9.76693 23.5131 9.66466 23.3855 9.66466Z" fill="#FFC107"/>
</svg>
